<svg viewBox="0 0 59 15" fill="none" xmlns="http://www.w3.org/2000/svg">
<path d="M1 6.36401L1.16075e-07 6.36401L-1.16075e-07 8.36401L1 8.36401L1 7.36401L1 6.36401ZM58.1333 8.07113C58.5238 7.6806 58.5238 7.04744 58.1333 6.65691L51.7693 0.292952C51.3788 -0.0975727 50.7456 -0.0975728 50.3551 0.292952C49.9646 0.683476 49.9646 1.31664 50.3551 1.70717L56.012 7.36402L50.3551 13.0209C49.9646 13.4114 49.9646 14.0446 50.3551 14.4351C50.7456 14.8256 51.3788 14.8256 51.7693 14.4351L58.1333 8.07113ZM1 7.36401L1 8.36401L57.4262 8.36402L57.4262 7.36402L57.4262 6.36402L1 6.36401L1 7.36401Z" fill="#383838"/>
</svg>
