<svg width="25" height="35" viewBox="0 0 25 35" fill="none" xmlns="http://www.w3.org/2000/svg">
<path d="M12.5 0C19.4032 0.000193014 25 5.78546 25 12.9218C25 14.8976 24.5669 16.7679 23.7999 18.4425C23.7966 18.4834 23.7878 18.5242 23.7644 18.5594L23.7018 18.6486C23.1686 19.7609 22.4879 20.7827 21.6814 21.6852L13.0865 34.6006C12.7297 35.1367 11.9528 35.1323 11.6025 34.5921L3.09943 21.4344C2.37981 20.5859 1.76625 19.6398 1.27943 18.6167L1.23977 18.5551C1.22044 18.5251 1.20923 18.4915 1.20429 18.4574C0.433367 16.7793 9.1863e-06 14.9031 0 12.9218C0 5.78534 5.59663 0 12.5 0ZM12.6878 5.8755C9.07685 5.8755 6.14877 8.8566 6.14877 12.533C6.1492 16.209 9.07712 19.1883 12.6878 19.1883C16.2982 19.1879 19.2244 16.2087 19.2248 12.533C19.2248 8.85687 16.2985 5.87593 12.6878 5.8755Z" fill="#314CFF"/>
</svg>
