<svg viewBox="0 0 24 24" fill="none" xmlns="http://www.w3.org/2000/svg">
<path fill-rule="evenodd" clip-rule="evenodd" d="M12 0C18.6274 0 24 5.37258 24 12C24 18.6274 18.6274 24 12 24C5.37258 24 0 18.6274 0 12C0 5.37258 5.37258 0 12 0ZM12 2.23256C6.60559 2.23256 2.23256 6.60559 2.23256 12C2.23256 17.3944 6.60559 21.7674 12 21.7674C17.3944 21.7674 21.7674 17.3944 21.7674 12C21.7674 6.60559 17.3944 2.23256 12 2.23256Z" fill="white"/>
<path d="M16.7442 6.69768C16.7442 7.62243 15.9945 8.37209 15.0698 8.37209C14.145 8.37209 13.3953 7.62243 13.3953 6.69768C13.3953 5.77292 14.145 5.02326 15.0698 5.02326C15.9945 5.02326 16.7442 5.77292 16.7442 6.69768Z" fill="white"/>
<path d="M13.7834 8.69422L13.8063 8.7073L13.8281 8.72202L16.1882 10.2673L19.1811 9.26708L19.8886 11.3841L15.871 12.7277L13.5027 11.1775L12.4911 12.5968L15.8895 15.9348L12.9124 20.6855L11.0205 19.5005L13.0443 16.27L10.8739 14.1383L7.56159 16.2089L3.83285 13.6455L5.09738 11.806L7.61937 13.5398L10.2487 11.8964L11.601 9.99909L10.0209 9.06813L7.43296 10.228L6.52053 8.19059L10.161 6.55923L13.7834 8.69422Z" fill="white"/>
</svg>
