<svg viewBox="0 0 94 49" fill="none" xmlns="http://www.w3.org/2000/svg">
<path d="M45.6571 33.7945C45.6571 33.9905 45.6194 34.1926 45.544 34.4008C45.4811 34.6091 45.3993 34.7989 45.2987 34.9704C45.1352 34.9949 44.9843 35.05 44.846 35.1358C44.7202 35.2215 44.6196 35.2767 44.5441 35.3012C44.3806 35.3257 44.1857 35.3379 43.9593 35.3379C43.7455 35.3257 43.5506 35.3257 43.3745 35.3379C43.035 35.3624 42.6954 35.3992 42.3558 35.4482C42.0289 35.4972 41.7019 35.5584 41.3749 35.6319C41.3497 35.6319 41.3246 35.638 41.2994 35.6503C41.2743 35.6503 41.2617 35.6625 41.2617 35.687C41.2617 35.7115 41.268 35.736 41.2806 35.7605C41.2931 35.785 41.2994 35.8095 41.2994 35.834C41.2994 35.8708 41.2617 35.8891 41.1862 35.8891C41.0479 35.8891 40.9536 35.8463 40.9033 35.7605C40.5008 35.8585 40.0984 35.9627 39.6959 36.0729C39.2935 36.1709 38.8911 36.2689 38.4886 36.3669C38.2874 36.4036 38.0862 36.4404 37.885 36.4771C37.6963 36.5139 37.5014 36.5629 37.3002 36.6241C37.1995 36.6486 37.0989 36.6915 36.9983 36.7527L36.6965 36.9365C36.6336 36.9242 36.577 36.9181 36.5267 36.9181C36.4764 36.9059 36.4261 36.8997 36.3758 36.8997C36.162 36.8997 35.9356 36.9426 35.6967 37.0284C35.4577 37.1019 35.2502 37.206 35.0741 37.3407H34.9421C34.8163 37.3407 34.7283 37.3224 34.678 37.2856C34.5648 37.2734 34.4956 37.3101 34.4705 37.3959C34.4453 37.4694 34.4013 37.5367 34.3384 37.598C33.9108 37.6347 33.4895 37.7082 33.0745 37.8185C32.6595 37.9287 32.2507 38.0512 31.8483 38.186C31.4459 38.3085 31.0371 38.4371 30.6221 38.5718C30.2197 38.6943 29.8109 38.7923 29.3959 38.8658C29.3456 39.1108 29.3205 39.3925 29.3205 39.711C29.3205 39.956 29.3393 40.2378 29.377 40.5563C29.4274 40.8747 29.528 41.1442 29.6789 41.3647V41.4015C29.6789 41.4627 29.6537 41.5056 29.6034 41.5301C29.5531 41.5546 29.528 41.5975 29.528 41.6587C29.528 41.9772 29.5594 42.2773 29.6223 42.5591C29.6977 42.8408 29.7732 43.1164 29.8487 43.3859C29.9241 43.6554 29.9933 43.9249 30.0562 44.1944C30.1316 44.4639 30.1694 44.7395 30.1694 45.0212C30.1694 45.0947 30.1631 45.1621 30.1505 45.2234C30.1505 45.2969 30.1442 45.3704 30.1316 45.4439C30.1694 45.5541 30.2322 45.646 30.3203 45.7195C30.4083 45.793 30.4838 45.8787 30.5466 45.9767C30.5592 46.038 30.5655 46.0931 30.5655 46.1421V46.3258C30.5655 46.5341 30.5404 46.7178 30.4901 46.8771C30.4397 47.0363 30.3769 47.1833 30.3014 47.3181C30.226 47.465 30.1442 47.6059 30.0562 47.7407C29.9681 47.8877 29.8864 48.0469 29.8109 48.2184C29.6852 48.2429 29.5846 48.2551 29.5091 48.2551C29.3205 48.2551 29.1632 48.2062 29.0375 48.1082C28.9243 48.0102 28.8237 47.8877 28.7357 47.7407C28.6476 47.6059 28.5596 47.465 28.4715 47.3181C28.3961 47.1711 28.3018 47.0486 28.1886 46.9506C28.2012 46.8893 28.2074 46.8342 28.2074 46.7852C28.22 46.7362 28.2263 46.6811 28.2263 46.6198C28.2263 46.3748 28.1823 46.136 28.0943 45.9032C28.0188 45.6705 27.9308 45.45 27.8302 45.2417C27.8176 44.8253 27.7736 44.4149 27.6981 44.0107C27.6226 43.6064 27.5157 43.2083 27.3774 42.8163C27.4026 42.6693 27.4214 42.5285 27.434 42.3937C27.4466 42.2467 27.4529 42.1058 27.4529 41.9711C27.4529 41.6159 27.434 41.2606 27.3963 40.9054C27.3585 40.5501 27.3523 40.1949 27.3774 39.8397C27.3397 39.7784 27.3019 39.7294 27.2642 39.6927C27.2265 39.6437 27.195 39.5885 27.1699 39.5273H27.0944C26.9058 39.5273 26.7234 39.5457 26.5474 39.5824C26.3713 39.6069 26.1952 39.6192 26.0192 39.6192C25.9563 39.6192 25.8997 39.6192 25.8494 39.6192C25.7991 39.6069 25.7425 39.5947 25.6796 39.5824C25.5413 39.4477 25.4344 39.2945 25.3589 39.1231C25.2834 38.9516 25.2457 38.7739 25.2457 38.5902C25.2457 38.3207 25.3212 38.0757 25.4721 37.8552C25.7865 37.7817 26.0946 37.696 26.3965 37.598C26.7109 37.4877 27.0127 37.3591 27.3019 37.2121C27.3397 37.0284 27.3585 36.8446 27.3585 36.6609C27.3711 36.4771 27.4403 36.3056 27.5661 36.1464C27.5283 36.0484 27.4654 35.9626 27.3774 35.8891C27.3019 35.8034 27.2642 35.7054 27.2642 35.5952C27.2642 35.5339 27.2768 35.4543 27.3019 35.3563C27.4277 35.2215 27.5157 35.0501 27.5661 34.8418C27.6164 34.6336 27.6604 34.4131 27.6981 34.1803C27.7358 33.9476 27.7736 33.7148 27.8113 33.4821C27.8616 33.2494 27.9433 33.0411 28.0565 32.8574C28.0314 32.7594 28.0125 32.6552 27.9999 32.545C27.9874 32.4225 27.9811 32.3123 27.9811 32.2143C27.9811 32.0673 27.9874 31.9203 27.9999 31.7733C28.0251 31.614 28.0628 31.467 28.1131 31.3323C27.9748 31.173 27.8616 30.9893 27.7736 30.7811C27.6855 30.5606 27.6415 30.3462 27.6415 30.1379C27.6415 29.7337 27.8427 29.4765 28.2452 29.3662C28.2326 29.3172 28.22 29.2744 28.2074 29.2376C28.2074 29.2009 28.2074 29.1641 28.2074 29.1274C28.2074 29.0171 28.2389 28.913 28.3018 28.815C28.3646 28.717 28.415 28.619 28.4527 28.521C28.3898 28.3618 28.3584 28.227 28.3584 28.1168C28.3584 28.0188 28.3772 27.933 28.415 27.8595C28.4527 27.7738 28.4841 27.6819 28.5093 27.5839C28.547 27.4614 28.5722 27.3512 28.5847 27.2532C28.6099 27.1552 28.6476 27.0694 28.6979 26.9959C28.7482 26.9224 28.8111 26.8673 28.8866 26.8306C28.9746 26.7938 29.1067 26.7754 29.2827 26.7754C29.5594 26.7754 29.8235 26.8612 30.075 27.0327C30.3391 27.1919 30.5404 27.3757 30.6787 27.5839C30.817 27.5717 30.9365 27.5472 31.0371 27.5104C31.1503 27.4614 31.2509 27.4185 31.339 27.3818C31.4396 27.345 31.5402 27.3144 31.6408 27.2899C31.754 27.2532 31.886 27.2409 32.0369 27.2532C32.0747 27.1674 32.1376 27.1123 32.2256 27.0878C32.3262 27.051 32.4268 27.0265 32.5274 27.0143C32.628 26.9898 32.7224 26.9592 32.8104 26.9224C32.8984 26.8857 32.955 26.8183 32.9802 26.7203C33.0305 26.7571 33.0871 26.7754 33.15 26.7754C33.2128 26.7754 33.2757 26.7693 33.3386 26.7571C33.4015 26.7326 33.4707 26.7203 33.5461 26.7203C33.6216 26.7203 33.6844 26.7448 33.7348 26.7938C34.0617 26.6223 34.4076 26.4998 34.7723 26.4263C35.1496 26.3406 35.5206 26.2916 35.8853 26.2793C36.7531 25.8138 37.6649 25.4953 38.6207 25.3238C39.5891 25.1524 40.5574 25.0666 41.5258 25.0666C41.6642 25.0666 41.7962 25.0666 41.922 25.0666C42.0603 25.0544 42.1924 25.0605 42.3181 25.085C42.4565 25.1095 42.6074 25.1524 42.7709 25.2136C42.9469 25.2748 43.1167 25.3483 43.2802 25.4341C43.4563 25.5198 43.6198 25.6178 43.7707 25.7281C43.9216 25.8261 44.0474 25.918 44.148 26.0037C44.2486 26.2242 44.2989 26.4386 44.2989 26.6468C44.2989 26.7448 44.2926 26.8428 44.28 26.9408C44.2675 27.0265 44.2612 27.1184 44.2612 27.2164C44.2612 27.3634 44.2926 27.5288 44.3555 27.7125C44.3178 27.7003 44.2549 27.6941 44.1668 27.6941C44.0537 27.6941 43.9593 27.7186 43.8839 27.7676C43.8084 27.8166 43.7392 27.8718 43.6764 27.933C43.6135 27.9943 43.5506 28.0494 43.4877 28.0984C43.4374 28.1474 43.3871 28.1719 43.3368 28.1719C43.2362 28.1719 43.1482 28.1535 43.0727 28.1168C43.0098 28.08 42.9406 28.0433 42.8652 28.0065C42.8023 27.9575 42.7331 27.9208 42.6577 27.8963C42.5822 27.8595 42.4942 27.8473 42.3936 27.8595V27.786C42.3936 27.6513 42.3496 27.5655 42.2615 27.5288C42.1735 27.4798 42.1043 27.4124 42.054 27.3267C41.8654 27.3144 41.6767 27.2899 41.4881 27.2532C41.312 27.2164 41.1297 27.198 40.941 27.198C40.6895 27.198 40.4945 27.2838 40.3562 27.4553C40.2933 27.4308 40.2367 27.4002 40.1864 27.3634C40.1487 27.3267 40.0921 27.3144 40.0166 27.3267H39.96C39.2809 27.3267 38.6144 27.4002 37.9604 27.5472C37.3064 27.6819 36.6588 27.8534 36.0174 28.0616C35.376 28.2576 34.7346 28.472 34.0932 28.7047C33.4518 28.9375 32.8104 29.1396 32.169 29.3111C32.0181 29.5071 31.8609 29.6541 31.6974 29.7521C31.5339 29.8378 31.3704 29.9113 31.2069 29.9726C31.056 30.0338 30.9051 30.0951 30.7542 30.1563C30.6032 30.2176 30.4712 30.3156 30.358 30.4503C30.2574 30.5851 30.1756 30.7749 30.1128 31.0199C30.0625 31.2527 30.0499 31.5773 30.075 31.9938C30.0122 32.0673 29.9744 32.1469 29.9618 32.2326C29.9493 32.3184 29.9367 32.4041 29.9241 32.4899C29.9115 32.5634 29.8927 32.6369 29.8675 32.7104C29.8424 32.7839 29.7984 32.8512 29.7355 32.9125C29.7606 33.035 29.7795 33.1575 29.7921 33.28C29.8046 33.4025 29.8109 33.525 29.8109 33.6475C29.8109 34.1619 29.7229 34.6642 29.5468 35.1542C29.6097 35.2522 29.6412 35.3624 29.6412 35.4849C29.6412 35.6197 29.6223 35.7422 29.5846 35.8524C29.5468 35.9626 29.528 36.0851 29.528 36.2199C29.528 36.3546 29.5531 36.4649 29.6034 36.5506C29.6789 36.5506 29.7229 36.5751 29.7355 36.6241H29.8487C30.075 36.6241 30.27 36.569 30.4335 36.4588C30.597 36.3485 30.773 36.2934 30.9617 36.2934C30.9994 36.2934 31.0434 36.3056 31.0937 36.3301C31.144 36.3546 31.188 36.3669 31.2258 36.3669C31.3138 36.3669 31.3515 36.3363 31.339 36.275C31.3264 36.2138 31.3578 36.1709 31.4333 36.1464L32.1124 36.0361C32.54 35.9626 32.9424 35.8769 33.3197 35.7789C33.7096 35.6687 34.0932 35.5094 34.4705 35.3012C34.5585 35.3379 34.6591 35.3563 34.7723 35.3563C34.8729 35.3563 34.9798 35.344 35.093 35.3195C35.2062 35.2828 35.3131 35.2644 35.4137 35.2644C35.5017 35.2644 35.5709 35.2767 35.6212 35.3012C35.6967 35.2522 35.791 35.2154 35.9042 35.1909C36.0174 35.1542 36.0802 35.0807 36.0928 34.9704H36.1306C36.1809 34.9704 36.2186 34.9827 36.2437 35.0072C36.2689 35.0317 36.3066 35.0439 36.3569 35.0439H36.4324C36.6965 34.9214 36.9354 34.8296 37.1492 34.7683C37.5014 34.6826 37.8787 34.6091 38.2811 34.5478C38.6835 34.4743 39.042 34.3518 39.3564 34.1803C39.7211 34.1803 40.0732 34.1252 40.4128 34.015C40.7649 33.8925 41.1171 33.8312 41.4692 33.8312C41.6327 33.8312 41.7836 33.8557 41.922 33.9047C42.0477 33.819 42.1924 33.7577 42.3558 33.721C42.5319 33.6842 42.6765 33.6168 42.7897 33.5188C42.8652 33.5311 42.9407 33.5433 43.0161 33.5556C43.1041 33.5556 43.1922 33.5556 43.2802 33.5556C43.6575 33.5556 44.0159 33.5066 44.3555 33.4086C44.7076 33.2984 45.0661 33.2187 45.4308 33.1697C45.5188 33.2677 45.5754 33.3719 45.6005 33.4821C45.6383 33.5801 45.6571 33.6842 45.6571 33.7945Z" fill="white"/>
<path d="M48.6931 47.3454V28.466H52.4531V47.3454H48.6931Z" fill="white"/>
<path d="M58.28 47.3454V32.2419H54.52V28.466H65.8V32.2419H62.04V47.3454H58.28Z" fill="white"/>
<path d="M83.6869 20.7452V10.3885H80.2491V6.93628H76.8114V3.48405H80.2491V6.93628H83.6869V10.3885H87.1246V20.7452H83.6869ZM90.5623 6.93628V3.48405H94V6.93628H90.5623ZM87.1246 10.3885V6.93628H90.5623V10.3885H87.1246Z" fill="white"/>
<path d="M44.0457 20.7453V3.48417L51.0286 3.48405V6.93628L47.4476 6.9364V10.3886L51.0286 10.3885V13.8407L47.4476 13.8409V17.2931L51.0286 17.293V20.7452L44.0457 20.7453Z" fill="white"/>
<path d="M0 20.7452V3.48405H23.0971V7.72056H6.66609V9.77462H18.2629V14.0345H6.66609V16.2986H23.6672V20.7452H0Z" fill="white"/>
<path fill-rule="evenodd" clip-rule="evenodd" d="M74.5407 8.08695C74.7615 7.86658 75.045 7.76218 75.3102 7.81619C75.5923 7.87042 75.851 7.99189 76.0588 8.19546C76.2655 8.40078 76.401 8.68705 76.4391 9.00036C76.4841 9.37365 76.535 9.75747 76.5839 10.145C76.5983 10.2596 76.6222 10.3745 76.6536 10.4895C76.6611 10.5122 76.6692 10.5367 76.6778 10.5633C76.6899 10.5892 76.7026 10.6178 76.715 10.6465C76.8084 10.8685 76.9578 11.0819 77.1173 11.2839C77.1539 11.3306 77.1912 11.3768 77.228 11.4246C77.4425 11.6945 77.5943 12.1509 77.5511 12.5092C77.54 12.62 77.5267 12.7245 77.5155 12.8121C77.5147 12.8188 77.5136 12.8258 77.5129 12.8326C77.5017 12.9161 77.4976 13.0019 77.4929 13.0944C77.4913 13.1278 77.4894 13.1636 77.4872 13.2024C77.4742 13.4206 77.446 13.7213 77.3314 14.2649C77.3299 14.4486 77.3262 14.6359 77.3198 14.8212C77.2571 16.6148 77.0496 18.4026 76.81 20.1916C76.7819 20.4003 76.7529 20.6096 76.7234 20.8179C76.7229 20.8429 76.7223 20.8688 76.7218 20.8948C76.715 21.249 76.7053 21.6641 76.6688 22.0147C76.6534 22.1644 76.6334 22.2992 76.6069 22.4161C76.494 22.9117 76.3955 23.2472 76.3111 23.5223C76.1208 24.7024 75.9192 25.887 75.7184 27.0675C75.6486 27.4779 75.579 27.8878 75.5101 28.2975C75.4268 28.7929 75.3451 29.2876 75.2667 29.7824C75.2663 29.7849 75.2655 29.7874 75.2651 29.7898C75.1927 30.2474 75.1218 30.705 75.0517 31.162C75.0416 31.4338 75.0392 31.6938 75.0364 31.9348C75.0325 32.2735 75.0271 32.5749 74.9966 32.8193C74.9682 33.0464 74.9215 33.2815 74.866 33.5125C74.7777 33.8796 74.6671 34.2359 74.5748 34.5286C74.5504 34.6061 74.5273 34.6803 74.5061 34.7483C74.4457 35.1389 74.3842 35.5311 74.3204 35.924C74.3006 35.9466 74.2799 35.9692 74.259 35.992C74.0973 36.1697 74.0003 36.3928 73.9134 36.6873C73.8583 36.8745 73.8071 37.0856 73.7429 37.3342C73.6697 37.6169 73.5808 37.945 73.4512 38.3235C73.3671 38.5685 73.254 38.671 73.1622 38.7544C73.1352 38.779 73.1101 38.8024 73.0877 38.8265C73.0114 38.9085 73.0239 39.0284 73.0384 39.1694C73.0552 39.3351 73.0736 39.533 72.9498 39.732C72.9367 39.7529 72.9213 39.7746 72.9046 39.7958C72.3548 40.4896 72.371 40.8897 72.3848 41.207C72.3885 41.2993 72.392 41.3828 72.3791 41.4614C72.3376 41.7161 72.1295 42.0084 71.9353 42.2052C71.8357 42.3066 71.7519 42.5119 71.6898 42.7299C71.6467 42.8673 71.6057 43.008 71.5707 43.1365C71.5333 43.2745 71.4392 43.4374 71.3221 43.6206C71.2008 43.8107 71.0547 44.0224 70.9203 44.2628C70.5771 44.8681 70.3638 45.1555 70.1985 45.3895C70.151 45.4555 70.1061 45.5166 70.0616 45.5771C70.0588 45.5809 70.056 45.5848 70.0532 45.5886C69.9131 45.7779 69.7269 45.9936 69.5349 46.2007C69.3004 46.4544 69.0578 46.6963 68.885 46.8887C68.8634 46.9037 68.8416 46.9186 68.82 46.9335C68.7913 46.9637 68.6903 47.0355 68.6584 47.062C68.0799 47.3654 67.4817 47.644 66.8602 47.9106C66.5566 48.0404 66.2042 48.0725 65.8966 47.997C65.8676 47.9898 65.8357 47.976 65.8032 47.9586C65.7471 47.9284 65.6885 47.8882 65.6338 47.8469C65.6343 47.8726 65.5207 47.8719 65.5174 47.8975C65.2643 47.7935 65.0303 47.6495 64.9073 47.4529C64.847 47.3559 64.8353 47.2474 64.8611 47.1863C64.8863 47.1235 64.9313 47.1071 64.9697 47.1063C65.0421 47.1146 65.1524 47.1163 65.1638 46.9951C65.1754 46.8877 65.1324 46.7529 65.0783 46.6032L64.9923 46.6411C64.9932 46.578 64.9964 46.5121 65.0038 46.4525C65.0081 46.4182 65.0143 46.3861 65.0232 46.3588C65.1193 46.0696 65.2805 45.8177 65.5011 45.635C65.9529 45.2627 66.3924 44.854 66.8377 44.4466L66.7002 44.5562C66.7309 44.5205 66.7616 44.4845 66.792 44.4492C67.1266 44.0618 67.4533 43.6901 67.7714 43.3409C67.9481 43.1468 68.1191 42.9558 68.2823 42.7678C68.6019 42.3997 68.8836 42.0357 69.1126 41.6653C69.1362 41.6271 69.1594 41.5887 69.1819 41.5504C69.1878 41.5265 69.1936 41.5026 69.1992 41.4788C69.3246 41.0503 69.4443 40.6446 69.547 40.3657C69.638 40.1192 69.7605 39.9675 69.8643 39.8358C69.9355 39.7456 69.9976 39.665 70.0332 39.5714C70.0521 39.5219 70.0762 39.4518 70.1035 39.3686C70.1578 39.2032 70.2274 38.9822 70.3118 38.7417C70.4023 38.4841 70.5107 38.2038 70.6433 37.9437C70.7572 37.7208 70.9155 37.4671 71.0629 37.2199C71.2743 36.8661 71.4623 36.5268 71.4794 36.3338C71.4859 36.2589 71.4979 36.182 71.5135 36.1036C71.568 35.8313 71.6685 35.5497 71.7585 35.2935C71.8694 34.9777 71.9639 34.7006 71.94 34.526C71.9113 34.3177 71.9761 34.1584 72.0711 33.9228C72.137 33.7593 72.2178 33.5572 72.2909 33.276C72.317 33.1758 72.3447 33.0848 72.3722 33.002C72.4339 32.8167 72.4973 32.6693 72.5537 32.5385C72.6686 32.2718 72.7545 32.0701 72.7315 31.7415C72.706 31.3763 72.7147 31.0029 72.795 30.7222C72.8317 30.5943 72.8548 30.4443 72.8784 30.2887C72.9097 30.0827 72.9418 29.866 73.0075 29.6744C73.038 29.5853 73.0804 29.5069 73.126 29.4363C73.1612 29.3817 73.1985 29.3316 73.2335 29.2841C73.2587 29.2501 73.2828 29.2172 73.3044 29.1851C73.324 29.055 73.3429 28.9248 73.3605 28.7947C73.3525 28.7721 73.3431 28.7481 73.3337 28.7231C73.2869 28.5977 73.2293 28.4439 73.2152 28.2627C73.1928 27.9758 73.2652 27.7372 73.34 27.4847C73.3982 27.2882 73.4581 27.0829 73.4743 26.8415C73.4752 26.8286 73.4758 26.8156 73.4764 26.8025C73.4841 26.6473 73.4773 26.4724 73.4696 26.2989C73.4572 26.0197 73.4423 25.745 73.4864 25.5588C73.5029 25.4893 73.553 25.4319 73.6023 25.376L73.6028 25.3755C73.6062 25.3717 73.6095 25.3677 73.6128 25.3639C73.6213 24.9002 73.621 24.4363 73.6144 23.9706C73.6058 23.9298 73.5975 23.8888 73.5892 23.8479C73.5487 23.6473 73.5084 23.4529 73.4413 23.3242C73.3688 23.1829 73.3415 22.8435 73.3101 22.4835C73.2905 22.2563 73.2689 22.023 73.2351 21.8261C73.2338 21.8187 73.2328 21.8113 73.2314 21.804C73.2102 21.6881 73.2612 21.5789 73.3138 21.4695C73.3629 21.3668 73.4135 21.2597 73.4072 21.1413C73.404 21.082 73.3876 21.0166 73.3699 20.9475C73.3543 20.8867 73.3376 20.822 73.3285 20.7547C73.3201 20.6917 73.3508 20.5558 73.3899 20.3796C73.4123 20.2788 73.4374 20.1641 73.4596 20.0441C73.4612 20.0354 73.4628 20.0264 73.4643 20.0177C73.4486 19.6822 73.4324 19.3466 73.4171 19.0111C73.3244 19.1642 73.2162 19.3204 73.0867 19.4667C72.9145 19.6597 72.6816 19.8659 72.3822 20.0862C72.3283 20.1254 72.2718 20.1647 72.2117 20.2053C72.1887 20.2207 72.1653 20.2362 72.1419 20.2511C71.893 20.3703 71.6698 20.487 71.5796 20.5977C71.3896 20.833 71.0742 21.0342 70.734 21.1977C70.4124 21.3557 70.0608 21.4634 69.8549 21.5812C69.7978 21.6149 69.7384 21.6416 69.6765 21.6612C69.6443 21.6714 69.611 21.6797 69.5774 21.6865C69.4784 21.7104 69.3694 21.7049 69.2312 21.6955C69.0818 21.6851 68.8981 21.6715 68.6458 21.6797C68.3538 21.6886 68.1378 21.6432 67.9555 21.5991C67.6963 21.5351 67.5099 21.4814 67.1886 21.529C66.8313 21.5821 66.4019 21.5349 66.0907 21.3531C65.9507 21.2725 65.7811 21.1839 65.6107 21.066C65.4826 20.9776 65.354 20.872 65.2435 20.752C65.2259 20.733 65.2088 20.7134 65.1921 20.6936C65.152 20.6436 65.1143 20.5906 65.0815 20.5345C65.0016 20.398 64.9746 20.2433 64.9556 20.1052C64.9497 20.0622 64.944 20.0205 64.9377 19.9809C64.8602 19.87 64.7837 19.7486 64.7127 19.6132C64.6909 19.5967 64.6672 19.5788 64.6429 19.5594C64.5218 19.462 64.3674 19.3166 64.27 19.0674C64.2592 19.0397 64.2493 19.0114 64.2406 18.9832C64.2309 18.9516 64.2227 18.9198 64.2154 18.8878C64.1628 18.7311 64.1727 18.5547 64.1866 18.3684C64.1992 18.1969 64.2143 18.0166 64.1839 17.8095C64.1631 17.6668 64.1224 17.5073 64.0869 17.3412C64.0338 17.0973 63.9941 16.8456 64.0313 16.6712C64.0451 16.6067 64.0958 16.5531 64.1462 16.501L64.1467 16.5C64.1501 16.4965 64.1538 16.4929 64.1572 16.4894C64.1539 16.0675 64.1862 15.6292 64.2663 15.1925C64.2651 15.1524 64.2651 15.1115 64.2653 15.0708C64.2652 14.8735 64.2768 14.6785 64.2495 14.5346C64.2193 14.3775 64.3067 14.0391 64.441 13.6928C64.5284 13.4645 64.6326 13.2364 64.7116 13.0428C64.7592 12.9275 64.8642 12.8667 64.9739 12.8063C65.0773 12.7487 65.1793 12.6979 65.2477 12.6008C65.2819 12.5522 65.3097 12.491 65.339 12.4275C65.3651 12.3712 65.3943 12.3113 65.4319 12.2547C65.4682 12.2009 65.579 12.1238 65.7288 12.0282C65.8215 11.969 65.9231 11.9081 66.0314 11.8402C66.0465 11.8247 66.0618 11.8092 66.0771 11.7938C66.0879 11.7825 66.0988 11.7713 66.1096 11.7601C66.2757 11.5868 66.448 11.4171 66.6236 11.2539C66.643 11.187 66.6486 11.1157 66.6367 11.039C66.6283 10.9839 66.6107 10.9241 66.5932 10.8625C66.5692 10.7788 66.5445 10.6922 66.5418 10.6117C66.5398 10.5489 66.5629 10.5074 66.6011 10.5069C66.61 10.5068 66.6197 10.5091 66.6294 10.5122L66.6882 10.5343C66.6968 10.5365 66.7043 10.5364 66.7091 10.5327C66.7158 10.5272 66.7146 10.5111 66.7133 10.4916C66.7113 10.4604 66.7088 10.4199 66.7369 10.3989C66.8433 10.3205 66.9754 10.2458 67.1057 10.1735C67.2501 10.0934 67.3926 10.016 67.4949 9.94012C67.6098 9.85479 67.8148 9.78706 68.019 9.71993C68.1609 9.67347 68.3032 9.62654 68.4176 9.57401C68.5282 9.52345 68.6217 9.43777 68.7135 9.35488C68.822 9.25632 68.9298 9.16101 69.0581 9.13416C69.0841 9.12876 69.1376 9.15586 69.206 9.18842C69.2542 9.21171 69.3091 9.23872 69.365 9.26006C69.4979 9.18275 69.6318 9.10785 69.7699 9.03355C69.7711 9.02528 69.7724 9.01683 69.7736 9.00826C69.8017 8.81259 69.8494 8.54354 70.1439 8.52733C70.2175 8.52394 70.2852 8.55469 70.3443 8.58316C70.4022 8.61123 70.4542 8.63609 70.5027 8.62162C70.5564 8.60582 70.6025 8.54595 70.6527 8.4815C70.7016 8.4204 70.757 8.35406 70.83 8.31346C70.8352 8.31056 70.8404 8.30761 70.8458 8.30503C70.8763 8.29033 70.9101 8.28087 70.947 8.27974C70.9557 8.27948 70.9652 8.27953 70.9748 8.27922C71.0678 8.27608 71.2059 8.27363 71.3604 8.3261C71.7093 8.21357 72.0633 8.12928 72.4226 8.07114C73.0224 7.97591 73.6323 7.94528 74.279 8.02057C74.3674 8.03092 74.4555 8.05409 74.5407 8.08695ZM72.795 11.3819C72.6522 11.4496 72.486 11.4905 72.3696 11.5252C72.3663 11.5261 72.3629 11.5269 72.3596 11.5278C72.3576 11.5283 72.3554 11.5289 72.3533 11.5294C72.3505 11.5301 72.3473 11.5312 72.3444 11.532C72.3056 11.5424 72.2677 11.5601 72.2217 11.5831C72.1106 11.6402 71.9498 11.7223 71.5539 11.8913C71.455 11.9681 71.3562 12.046 71.256 12.1252C70.3137 12.8761 69.3745 13.6947 68.3321 14.3955C68.3203 14.4036 68.3083 14.4117 68.2964 14.4198C68.1855 14.4894 68.0805 14.5606 67.9801 14.6342C67.9721 14.6439 67.9629 14.6543 67.9544 14.6647C67.7881 14.8651 67.6337 15.1161 67.485 15.242C67.2933 15.4024 67.1568 15.5249 67.0438 15.6319C66.6121 16.3386 66.4707 17.2739 66.609 18.4264C66.6132 18.4679 66.6178 18.511 66.6221 18.5528C66.6215 18.5529 66.6205 18.5529 66.62 18.5533C66.6047 18.5552 66.646 18.6793 66.7868 18.8472C66.8369 18.9086 66.8968 18.9751 66.963 19.0448C66.9652 19.0469 66.9676 19.049 66.9698 19.0511C67.0033 19.0813 67.0504 19.1121 67.1309 19.1433C67.2194 19.1418 67.3248 19.1264 67.4309 19.1059C67.5808 19.0774 67.7319 19.0398 67.8616 19.03C68.1719 19.0086 68.5946 19.0477 68.9306 19.0553C68.9851 19.0568 69.0375 19.0579 69.0859 19.058C69.1139 19.0516 69.1419 19.045 69.1698 19.0385C69.1699 19.0372 69.1703 19.0356 69.1709 19.0342C69.1773 19.0164 69.2504 18.9745 69.3581 18.8852C69.3752 18.892 69.3936 18.8985 69.4122 18.9052C69.6499 18.9861 69.8563 18.8351 70.1885 18.5343C70.2522 18.4768 70.3212 18.4131 70.3968 18.3442C70.3996 18.3417 70.403 18.3386 70.4067 18.3352C70.4382 18.3065 70.494 18.2484 70.5599 18.1719C70.6451 18.0725 70.7523 18.0455 70.839 18.026C70.8646 18.0197 70.889 18.0132 70.9108 18.0044C70.984 17.9766 70.9784 17.8876 70.9669 17.7874C70.9544 17.6535 70.9329 17.4994 71.0897 17.3839C71.5896 17.0091 71.5321 16.6785 71.4847 16.4473C71.4708 16.3786 71.4589 16.3145 71.4611 16.2587C71.47 16.0742 71.626 15.8766 71.7821 15.7383C71.9052 15.6311 71.9541 15.324 71.9526 15.0803C71.9529 14.9863 71.9939 14.8805 72.0433 14.7511C72.0934 14.6199 72.1519 14.4658 72.1781 14.287C72.2442 13.8351 72.2792 13.5972 72.3093 13.4036C72.3175 13.3492 72.3259 13.2983 72.3334 13.2472C72.3574 13.0847 72.3986 12.8885 72.4399 12.6904C72.4507 12.6389 72.4618 12.5871 72.4724 12.5355L72.4656 12.555C72.4667 12.5493 72.4677 12.5433 72.4687 12.5376C72.5023 12.3595 72.5263 12.1876 72.5322 12.0467C72.6245 11.8186 72.7145 11.5867 72.795 11.3819ZM73.9564 10.6112C73.7731 10.6616 73.5827 10.7258 73.3956 10.8003C73.3812 10.8101 73.3664 10.8195 73.3521 10.8288C73.3254 10.846 73.2997 10.8657 73.2755 10.8878C73.372 10.8988 73.4847 10.8953 73.6023 10.8277C73.7279 10.7663 73.8437 10.6883 73.9564 10.6112Z" fill="white"/>
<path fill-rule="evenodd" clip-rule="evenodd" d="M31.1738 3.04051C31.352 2.92743 31.5682 2.88967 31.7739 2.9362C31.9793 2.9828 32.158 3.10988 32.2706 3.28861C32.3832 3.46756 32.4208 3.68473 32.3745 3.89124C32.155 4.86579 31.8864 5.81474 31.6081 6.75159C31.3602 7.58369 31.1017 8.40903 30.8407 9.23162C30.8341 9.25246 30.8273 9.27347 30.8208 9.2943C30.5042 10.3059 30.3424 11.3898 30.0974 12.4554C30.1747 12.3278 30.2519 12.1999 30.3298 12.0725C30.3765 11.9963 30.4248 11.9182 30.4714 11.8428C31.2601 10.5708 32.0829 9.30081 33.0559 8.10222C33.1089 8.03684 33.1632 7.97021 33.2164 7.90574C34.0052 6.98653 34.8289 5.99946 36.2441 5.42097C36.3461 5.38203 36.4397 5.31713 36.5337 5.2582C36.8759 5.13509 37.1624 5.16264 37.3646 5.21817C37.611 5.29121 37.7792 5.38214 37.9599 5.51263C38.3178 5.767 38.5377 6.20995 38.6025 6.50506C38.6756 6.81019 38.6761 7.03419 38.6739 7.23253C38.6629 7.62447 38.616 7.92299 38.5705 8.21653C38.4758 8.79599 38.3664 9.32136 38.2579 9.84635C38.2471 9.89806 38.2363 9.95088 38.2254 10.0039C37.791 12.0353 37.2688 13.968 36.7765 15.891C36.7697 15.9179 36.7633 15.9449 36.7566 15.9711C36.4207 17.2627 36.2131 18.7265 36.4497 19.6769C37.2392 18.9214 38.2662 17.5324 39.115 16.3915C39.3506 16.0724 39.5855 15.7512 39.82 15.4301C39.8209 15.4289 39.8218 15.4276 39.8226 15.4264C40.1611 14.9691 40.4393 14.4859 40.8513 13.9625C41.0784 13.6682 41.408 13.4845 41.7776 13.4616C42.1467 13.4381 42.5262 13.5771 42.8215 13.8387C43.1167 14.1004 43.3012 14.461 43.324 14.8317C43.3474 15.203 43.2069 15.5543 42.9442 15.8173C42.6074 16.1429 42.22 16.5732 41.8621 17.0099C41.8611 17.0111 41.8599 17.0124 41.8589 17.0136C41.6043 17.3276 41.3474 17.6407 41.0884 17.9523C40.0002 19.2087 39.2196 20.3224 37.6525 21.7055L37.4102 21.8372C37.4035 21.8399 37.3965 21.8424 37.3897 21.8451C37.1722 21.9294 36.938 22.0217 36.6181 22.0921C36.3112 22.1489 35.8207 22.248 35.2134 21.9257C35.2071 21.9221 35.2008 21.9182 35.1945 21.9146C34.8047 21.681 34.4868 21.4494 34.2624 20.9917C34.2604 20.9876 34.258 20.9833 34.2561 20.9791C33.4104 18.8179 33.8109 17.0297 34.1915 15.3158C34.1985 15.2883 34.2054 15.2601 34.2125 15.232C34.7168 13.2651 35.3014 11.3359 35.7573 9.45496C35.7702 9.40017 35.783 9.34588 35.7956 9.29272C35.9222 8.75596 36.0694 8.22306 36.1906 7.73717C36.191 7.73539 36.1912 7.73314 36.1917 7.73138C35.678 8.09219 35.1623 8.61336 34.6972 9.15787C34.6467 9.21711 34.5958 9.27796 34.5461 9.33749C33.6461 10.4158 32.8424 11.6104 32.0755 12.8437C32.0301 12.9168 31.9831 12.9927 31.9375 13.067C30.7007 15.0893 29.5282 17.1724 28.3218 19.256C28.2665 19.3509 28.2133 19.4422 28.1581 19.5357C28.0798 19.6683 28.0016 19.8026 27.9153 19.945C27.8722 20.0157 27.8274 20.0886 27.7673 20.1773C27.7354 20.223 27.7072 20.2687 27.6299 20.358C27.604 20.3865 27.59 20.4037 27.5339 20.4549C27.5061 20.4798 27.4722 20.5078 27.4248 20.5403C27.3766 20.5718 27.2636 20.6507 27.0676 20.6925C27.0034 20.7102 26.7508 20.7357 26.5478 20.6562C26.3314 20.5824 26.1644 20.4174 26.0972 20.3222C25.9396 20.1029 25.9267 19.9405 25.9151 19.8924C25.9036 19.8225 25.9011 19.7712 25.9005 19.7285C25.9001 19.698 25.9008 19.6721 25.902 19.649C25.9142 19.4857 25.9289 19.4434 25.9398 19.3835C25.952 19.3253 25.9628 19.2803 25.9734 19.2371C25.9953 19.148 26.0159 19.0705 26.0374 18.9921C26.0795 18.8382 26.1225 18.6908 26.1659 18.5449C26.1846 18.4821 26.2017 18.4238 26.2204 18.361C26.7714 16.5156 27.3153 14.672 27.8707 12.8384C27.8821 12.8006 27.8937 12.7628 27.9053 12.7257C28.3168 11.4189 28.8838 10.159 29.3048 8.81231C29.3117 8.79052 29.3189 8.76829 29.3258 8.74646C29.5853 7.92861 29.8415 7.11085 30.0848 6.29435C30.358 5.37515 30.6169 4.45456 30.8229 3.53936C30.8693 3.33304 30.9958 3.15356 31.1738 3.04051ZM26.2084 19.0753C26.1797 19.1099 26.1976 19.0913 26.2078 19.0769C26.2087 19.0758 26.2096 19.0744 26.2105 19.0732C26.2098 19.0739 26.209 19.0746 26.2084 19.0753ZM36.9428 7.33156C36.8849 7.35123 36.8268 7.37445 36.7682 7.40004C36.8447 7.4083 36.9671 7.40394 37.1322 7.33683C37.0651 7.32467 36.9987 7.31225 36.9428 7.33156Z" fill="white"/>
<path d="M71.2219 0.0010514C71.4854 -0.0135107 71.7835 0.1235 71.9961 0.392967C72.2111 0.662688 72.3037 1.03422 72.3009 1.41332C72.2985 1.79317 72.2324 2.15958 72.1629 2.45211C72.0904 2.74423 72.0016 2.9372 71.8624 3.00995C71.6356 3.12751 71.3824 3.27351 71.1238 3.42768C71.1118 3.44003 71.0995 3.45222 71.0871 3.46403C71.0667 3.48376 71.047 3.50652 71.0283 3.53093L71.0047 3.64945C70.9977 3.6935 70.9916 3.74143 70.9853 3.78957C70.9818 3.81797 70.9777 3.84696 70.9732 3.87543C70.9475 4.08593 70.6636 4.16199 70.4865 4.22889C70.4834 4.23007 70.4801 4.2314 70.477 4.23258C70.4366 4.2471 70.4003 4.26772 70.3579 4.29263C70.2577 4.3522 70.1221 4.43107 69.7673 4.55022C69.6855 4.6169 69.6034 4.68289 69.5197 4.74829C68.6115 5.46082 67.6064 6.18554 66.5801 6.91278C66.5694 6.92447 66.5581 6.93653 66.5471 6.9486C66.3363 7.17927 66.073 7.47181 65.852 7.59284C65.6692 7.69408 65.5214 7.765 65.3894 7.82567C65.3887 7.82593 65.3879 7.82646 65.3873 7.82672C65.3211 7.85335 65.26 7.87712 65.2032 7.89942C64.4681 8.43567 63.7662 9.10809 63.1584 9.87585C62.9678 10.1166 62.7863 10.3673 62.615 10.6265C62.4572 10.8652 62.3064 11.1108 62.1613 11.3608C62.1064 11.5254 62.063 11.6877 62.0233 11.8386C61.9676 12.0503 61.9187 12.2398 61.8539 12.3812C61.727 12.6576 61.5177 12.9236 61.3314 13.1445C61.3308 13.1452 61.3299 13.1459 61.3293 13.1466C61.2878 13.1954 61.2472 13.2421 61.2092 13.2862C61.1756 13.3251 61.1441 13.362 61.1153 13.3962C61.011 13.6213 60.9093 13.8482 60.809 14.0758C60.7869 14.0819 60.764 14.0878 60.7408 14.0937C60.4499 14.1681 60.3207 14.3955 60.1202 14.7537C60.0329 14.9099 59.932 15.0908 59.7987 15.2963C59.7129 15.4286 59.5996 15.4588 59.5076 15.4833C59.4805 15.4906 59.4553 15.4977 59.4331 15.5065C59.3566 15.5369 59.3733 15.6226 59.3932 15.7235C59.4189 15.8549 59.4503 16.0114 59.2904 16.1091C58.7806 16.4213 58.8501 16.7193 58.9017 16.9419C58.917 17.007 58.931 17.066 58.9284 17.1179C58.9203 17.2853 58.7552 17.4421 58.5917 17.5424C58.4622 17.6212 58.4094 17.887 58.4049 18.1056C58.4034 18.1878 58.357 18.278 58.3037 18.3826C58.248 18.4919 58.1839 18.6192 58.1521 18.7709C58.0763 19.1292 58.0317 19.3292 57.9968 19.4846L57.9963 19.4862C57.9935 19.4984 57.9907 19.5105 57.9879 19.522C57.9768 19.5684 57.9658 19.6102 57.9543 19.6516C57.9174 19.7846 57.8492 19.9365 57.7676 20.0825C57.6703 20.2579 57.5544 20.4253 57.4749 20.5545C57.1372 20.8322 56.775 21.0898 56.4615 21.3857C56.2985 21.5366 56.0837 21.6736 55.8881 21.7724C55.6906 21.87 55.5236 21.9148 55.3777 21.8756C55.2323 21.8362 55.1119 21.7159 55.0043 21.5232C54.8989 21.3315 54.8127 21.0768 54.7992 20.8263C54.7945 20.7303 54.7902 20.6336 54.786 20.5366C54.6948 20.4649 54.6159 20.3875 54.56 20.308C54.3426 19.9921 54.0847 19.6742 53.878 19.3461C53.6898 19.0455 53.5468 18.7347 53.5423 18.4C53.5433 18.3838 53.546 18.3363 53.5476 18.3205C53.5477 18.2393 53.5503 18.1537 53.556 18.0639C53.5717 17.8149 53.5982 17.5452 53.6347 17.2806C53.6384 17.2533 53.6427 17.2252 53.6467 17.1969C53.5374 16.9627 53.4388 16.7285 53.4086 16.5663C53.3839 16.4284 53.4549 16.3417 53.5161 16.2603C53.558 16.2076 53.5954 16.1595 53.5932 16.1075C53.5921 16.0793 53.5869 16.0415 53.5806 15.9969C53.5554 15.8077 53.5119 15.4947 53.6514 15.2189C53.7135 15.0948 53.8287 14.9607 53.9394 14.8259C54.097 14.641 54.2453 14.4629 54.2111 14.3676C54.1517 14.1935 54.227 14.0151 54.2945 13.8508C54.3584 13.7004 54.4154 13.5578 54.3381 13.4758C54.2457 13.3742 54.2929 13.2963 54.3633 13.1803C54.4118 13.1028 54.4714 13.007 54.5038 12.8684C54.541 12.7113 54.6204 12.6068 54.6885 12.5144C54.7844 12.3844 54.8561 12.2943 54.7535 12.1299C54.6397 11.9471 54.5725 11.7704 54.6261 11.6321C54.6505 11.5688 54.6523 11.5 54.6544 11.4246C54.6571 11.3257 54.6605 11.2183 54.7158 11.1269C54.7611 11.0537 54.8652 10.9989 54.9571 10.9499C54.9856 10.9347 55.0131 10.9196 55.0373 10.9052C55.0419 10.8426 55.0457 10.7793 55.0488 10.7155C55.0437 10.7114 55.0386 10.7066 55.0331 10.7024C55.0334 10.6997 55.0339 10.6926 55.0342 10.6902C55.0241 10.6825 55.0129 10.6742 55.0022 10.666C54.9179 10.6017 54.8148 10.5226 54.7703 10.4337C54.7001 10.2929 54.7719 10.1828 54.8479 10.0665C54.9073 9.97614 54.9689 9.88187 54.9717 9.76681C54.9736 9.6883 54.9504 9.59613 54.9287 9.50501C54.8964 9.36949 54.8683 9.2358 54.9214 9.14997C54.9413 9.11794 55.005 9.09533 55.0677 9.07253L55.0688 9.072C55.073 9.07048 55.0772 9.06879 55.0814 9.06726C55.0808 8.84558 55.0797 8.62328 55.0787 8.40037C55.0688 8.38007 55.0593 8.35907 55.0499 8.33874C55.0041 8.23968 54.9609 8.14285 54.8852 8.07483C54.8029 8.00079 54.7858 7.83443 54.7682 7.65816C54.7568 7.5427 54.7449 7.42352 54.7152 7.32261C54.6979 7.26448 54.7614 7.21639 54.8259 7.16879C54.8863 7.12344 54.9474 7.07752 54.946 7.01866C54.9453 6.98915 54.9299 6.95569 54.9135 6.92016C54.8991 6.88837 54.8838 6.85446 54.8768 6.8206C54.8704 6.78947 54.9105 6.72482 54.9597 6.64255C54.9901 6.59162 55.0246 6.53297 55.0541 6.47135C55.0525 6.4274 55.0508 6.38197 55.0488 6.33808C55.0424 6.21335 55.0358 6.09563 55.031 5.97145C54.9913 5.93222 54.9374 5.89586 54.8668 5.86346C54.8162 5.84024 54.7547 5.81812 54.6922 5.7955C54.607 5.76464 54.5189 5.73309 54.4503 5.69542C54.3968 5.6662 54.3775 5.63783 54.4031 5.62378C54.415 5.61728 54.4363 5.61371 54.4556 5.61061C54.4777 5.60706 54.4976 5.60385 54.4981 5.59691C54.4983 5.59189 54.484 5.58456 54.4666 5.57584C54.4387 5.56189 54.4025 5.54381 54.4036 5.52369C54.4081 5.44993 54.4312 5.36316 54.4535 5.28243C54.4782 5.19314 54.5027 5.10123 54.5002 5.02906C54.4974 4.94728 54.5678 4.8385 54.6376 4.73038C54.6865 4.65343 54.7346 4.58004 54.7588 4.51124C54.7824 4.44446 54.7593 4.37271 54.7367 4.30001C54.7097 4.21309 54.6831 4.13351 54.7399 4.07086C54.7516 4.05848 54.8146 4.04813 54.8931 4.03557C54.9487 4.02667 55.0124 4.01655 55.0714 4.00344C55.0805 3.91872 55.0921 3.8329 55.1055 3.74901C55.0977 3.74518 55.0895 3.74137 55.0814 3.73742L55.0808 3.73689C54.8937 3.64603 54.6371 3.5255 54.8086 3.40872C54.8522 3.37952 54.9291 3.36527 54.998 3.35235C55.0656 3.33973 55.1259 3.32837 55.1406 3.30494C55.1574 3.27809 55.1199 3.24224 55.0793 3.2017C55.0223 3.14466 54.9588 3.08284 55.0279 3.0326C55.0325 3.02919 55.0375 3.02536 55.0425 3.02154C55.092 2.984 55.1652 2.93043 55.3064 2.88142C55.3578 2.70609 55.4145 2.52962 55.4732 2.35518C55.5711 2.06405 55.6754 1.77457 55.7733 1.48548C55.8214 1.34508 56.0099 1.2144 56.3088 1.11517C56.6083 1.01698 56.9921 0.95584 57.3889 0.956083C57.7854 0.955392 58.169 1.01862 58.4663 1.13676C58.7633 1.25525 58.9468 1.42049 58.9851 1.58768C59.0468 1.86059 59.1042 2.13076 59.1524 2.40154C59.1597 2.41568 59.1669 2.43003 59.1734 2.4442C59.2223 2.55122 59.327 2.65393 59.4315 2.75868C59.4555 2.78232 59.4801 2.8063 59.5034 2.83032C59.6807 3.0136 59.5766 3.33149 59.518 3.50353C59.5171 3.50664 59.5159 3.50991 59.5149 3.51302C59.5011 3.55365 59.4948 3.59379 59.4876 3.63997C59.4707 3.7477 59.4473 3.8984 59.2951 4.19255C59.2904 4.28152 59.2837 4.37215 59.2741 4.46067C59.186 5.27603 58.972 6.06272 58.7155 6.84009L58.652 7.03288C58.6319 7.09774 58.6127 7.16332 58.5943 7.22937C58.5946 7.24084 58.5949 7.25256 58.5954 7.26413C58.6022 7.48943 58.63 7.77544 58.5634 7.94735C58.478 8.16521 58.3975 8.313 58.3257 8.43356C58.1899 9.15505 58.0573 9.88792 57.9365 10.627C57.917 10.7475 57.8978 10.8686 57.8793 10.9894L57.8416 11.3071C57.8219 11.515 57.8088 11.7332 57.8033 11.9439C57.843 12.0741 57.893 12.1968 57.9397 12.3085C58.0048 12.4704 58.0627 12.6134 58.0755 12.7251C58.0778 12.7464 58.0775 12.7679 58.0781 12.7894C58.1387 12.7078 58.2039 12.6293 58.267 12.556C58.415 12.3842 58.5459 12.2348 58.5439 12.1041C58.5416 11.9478 58.6282 11.8667 58.7574 11.7475C58.7917 11.7159 58.8288 11.6816 58.8681 11.6426C58.8689 11.6419 58.87 11.6413 58.8707 11.6405C58.9332 11.5788 59.0003 11.5051 59.0701 11.4103C59.2021 11.2309 59.3336 11.1264 59.4451 11.0379C59.602 10.9136 59.7198 10.8204 59.752 10.5902C59.7876 10.3347 59.8642 10.0893 59.9975 9.94275C60.0582 9.87597 60.1102 9.78851 60.1648 9.69728C60.2368 9.57691 60.3135 9.44925 60.4197 9.35699C60.5072 9.28116 60.6245 9.24841 60.7282 9.22003C60.7605 9.21118 60.7916 9.2029 60.82 9.19369C60.8687 9.11964 60.9177 9.04525 60.9658 8.97086C60.9634 8.95181 60.9599 8.93099 60.9569 8.90976C60.9417 8.80269 60.9234 8.67095 60.9569 8.54524C61.0097 8.34675 61.1455 8.23257 61.2889 8.11539C61.401 8.02378 61.5181 7.92985 61.6079 7.78827C61.6692 7.69149 61.7224 7.56862 61.7773 7.4464C61.8582 7.26541 61.9433 7.08559 62.0511 7.00128C62.0913 6.96996 62.1572 6.96803 62.2221 6.96704H62.2363C62.4148 6.69372 62.5998 6.41946 62.7939 6.14739C62.804 6.11797 62.8151 6.08769 62.8259 6.05836C62.8787 5.91453 62.9336 5.77409 62.9386 5.65117C62.9415 5.58688 62.9757 5.50371 63.0278 5.41044C63.0282 5.40968 63.0285 5.40852 63.0289 5.4078C63.0784 5.31429 63.1456 5.21058 63.214 5.10544C63.3028 4.96981 63.3945 4.83055 63.4569 4.70299C63.4939 4.62819 63.5831 4.61411 63.6741 4.60027C63.7587 4.58768 63.8466 4.57358 63.8965 4.51019C63.9214 4.47844 63.9386 4.43376 63.9568 4.3864C63.973 4.34453 63.989 4.30091 64.014 4.2605C64.037 4.22332 64.1249 4.17976 64.2359 4.12565C64.3038 4.09286 64.3841 4.05263 64.4625 4.00871C64.6121 3.83081 64.7661 3.6528 64.9236 3.4772C64.9307 3.41249 64.9243 3.34239 64.901 3.26596C64.8845 3.21078 64.8582 3.14973 64.8318 3.08791C64.7959 3.00386 64.7588 2.91671 64.7426 2.83612C64.73 2.77323 64.7442 2.73155 64.7788 2.73235C64.7949 2.73278 64.8154 2.74227 64.8339 2.75078C64.8551 2.76054 64.874 2.76903 64.8816 2.76184C64.8868 2.7564 64.883 2.73997 64.8785 2.72023C64.8711 2.68844 64.8619 2.64724 64.8842 2.62647C64.9677 2.54895 65.0727 2.47567 65.1785 2.40259C65.2942 2.32298 65.4105 2.24386 65.488 2.16607C65.575 2.07878 65.7475 2.01001 65.9218 1.94114C66.0427 1.89369 66.1641 1.84624 66.258 1.79259C66.3485 1.74121 66.4182 1.64857 66.4836 1.56134C66.5626 1.45616 66.6419 1.35359 66.7553 1.32903C66.7785 1.32388 66.8361 1.35498 66.9074 1.39435C66.958 1.42228 67.0161 1.45444 67.0737 1.48074C67.181 1.40171 67.2907 1.32568 67.4052 1.25002C67.4045 1.24084 67.4034 1.23109 67.4026 1.22157C67.3827 1.00508 67.3649 0.703595 67.6381 0.705341C67.7072 0.706118 67.7769 0.746244 67.839 0.782776C67.9006 0.818274 67.9558 0.849874 67.9969 0.83756C68.0441 0.823137 68.0677 0.7618 68.0976 0.692698C68.1397 0.595658 68.1856 0.489074 68.3048 0.489366C68.3127 0.489468 68.3213 0.48982 68.33 0.489893C68.4133 0.491195 68.5418 0.491222 68.6982 0.553105C68.9909 0.428223 69.3076 0.310186 69.6687 0.214919C69.7285 0.198974 69.7886 0.184683 69.8486 0.171198L69.8491 0.170671C70.2838 0.0907204 70.7325 0.0286923 71.2219 0.0010514Z" fill="white"/>
<path fill-rule="evenodd" clip-rule="evenodd" d="M11.5486 25.2296C17.9267 25.2296 23.0971 30.4219 23.0971 36.8269C23.0971 43.2319 17.9267 48.4242 11.5486 48.4242C5.17047 48.4242 0 43.2319 0 36.8269C0 30.4219 5.17047 25.2296 11.5486 25.2296ZM11.5486 27.3872C6.35709 27.3872 2.14857 31.6135 2.14857 36.8269C2.14857 42.0403 6.35709 46.2666 11.5486 46.2666C16.74 46.2666 20.9486 42.0403 20.9486 36.8269C20.9486 31.6135 16.74 27.3872 11.5486 27.3872Z" fill="white"/>
<path d="M16.1143 31.7025C16.1143 32.5962 15.3928 33.3207 14.5029 33.3207C13.6129 33.3207 12.8914 32.5962 12.8914 31.7025C12.8914 30.8088 13.6129 30.0843 14.5029 30.0843C15.3928 30.0843 16.1143 30.8088 16.1143 31.7025Z" fill="white"/>
<path d="M13.2649 33.6321L13.2869 33.6447L13.3079 33.6589L15.5792 35.1523L18.4596 34.1857L19.1404 36.2317L15.2739 37.5301L12.9948 36.032L12.0212 37.4037L15.2918 40.6296L12.4267 45.221L10.6059 44.0758L12.5536 40.9536L10.4648 38.8934L7.27713 40.8946L3.68866 38.4172L4.90562 36.6394L7.33273 38.315L9.86318 36.7268L11.1646 34.8931L9.64392 33.9934L7.15334 35.1144L6.27523 33.1453L9.77873 31.5687L13.2649 33.6321Z" fill="white"/>
<path d="M81.6684 36.9652L82.4663 37.5671C82.5962 37.5671 82.6643 37.4972 82.6643 37.3613C82.6548 37.2326 82.6231 37.1081 82.5715 36.9962L80.8394 32.9149L77.0072 33.0314C76.9716 33.0277 76.9356 33.0339 76.9021 33.0497C76.8686 33.0655 76.8383 33.0905 76.8134 33.1229C76.7885 33.1552 76.7697 33.1941 76.7583 33.2367C76.7469 33.2794 76.7432 33.3246 76.7474 33.3693C76.7474 33.4198 76.8031 33.4858 76.9114 33.5751L77.7063 34.177L76.8495 35.8196C76.653 36.1623 76.5324 36.5643 76.5 36.9846C76.5116 37.3153 76.5915 37.6365 76.732 37.9166L79.3393 43.625C79.2797 43.2883 79.2486 42.9447 79.2466 42.5998C79.2537 41.9861 79.4054 41.3889 79.6827 40.8834L81.6714 36.9652H81.6684Z" fill="white"/>
<path d="M82.6735 33.645L84.8231 29.4511C84.0189 27.1522 83.1653 26.0027 82.2621 26.0027C81.7178 26.0027 81.3528 26.193 81.1641 26.5736L79.1289 30.6549L82.6735 33.645Z" fill="white"/>
<path d="M85.0675 44.9647V39.5475H81.0714C80.7348 40.1212 80.4249 40.7189 80.1435 41.3377C79.9457 41.8085 79.8397 42.3316 79.8342 42.8638C79.8342 44.2644 80.193 44.9647 80.9106 44.9647H85.0675Z" fill="white"/>
<path d="M89.4657 32.6353L91.3215 28.7521C91.3815 28.6223 91.4135 28.475 91.4143 28.3249C91.4143 28.1502 91.3679 28.0609 91.2751 28.0609C91.2156 28.1007 91.1522 28.1307 91.0865 28.1502L90.2359 28.5968L89.4657 26.6901C89.1296 25.8306 88.4461 25.4008 87.4151 25.4008H82.6024C83.0269 25.5322 83.4299 25.7556 83.7932 26.061C84.286 26.5503 84.7892 27.4693 85.3026 28.8181L86.2614 31.3422L85.5593 31.7694C85.5243 31.7901 85.4953 31.8241 85.4765 31.8666C85.4576 31.9091 85.4498 31.9579 85.4542 32.0063C85.4542 32.1499 85.5284 32.2354 85.6769 32.2548L89.4781 32.6431L89.4657 32.6353Z" fill="white"/>
<path d="M91.3122 44.157L94 38.0214C93.6577 38.5424 93.2101 38.938 92.704 39.167C92.1826 39.3473 91.6424 39.4272 91.1019 39.4039H88.1079V38.6272C88.1079 38.3243 88.0491 38.1729 87.9316 38.1729C87.8951 38.1693 87.8586 38.1782 87.8259 38.1987C87.7932 38.2193 87.7656 38.2506 87.746 38.2894L85.8686 42.4095L87.8326 46.1996C87.9811 46.483 88.1079 46.5879 88.2161 46.5335C88.3244 46.4791 88.3801 46.4248 88.3801 46.3161V45.0229H90.041C90.2992 45.0503 90.5582 44.9831 90.7866 44.8294C91.015 44.6757 91.2029 44.4421 91.3277 44.157H91.3122Z" fill="white"/>
<path d="M90.143 38.6233H91.9308C92.427 38.5895 92.8984 38.3396 93.2638 37.9166C93.7566 37.4273 94.002 36.9095 94 36.3633C93.9951 36.0942 93.9261 35.8332 93.802 35.6138L91.674 31.5364L88.0151 34.2081L90.143 38.6233Z" fill="white"/>
</svg>
