<svg width="39" height="39" viewBox="0 0 39 39" fill="none" xmlns="http://www.w3.org/2000/svg">
<g clip-path="url(#clip0_378_258)">
<path fill-rule="evenodd" clip-rule="evenodd" d="M19.5 0C30.2696 0 39 8.73045 39 19.5C39 30.2695 30.2696 39 19.5 39C8.73045 39 0 30.2695 0 19.5C0 8.73045 8.73045 0 19.5 0ZM19.5 3.6279C10.7341 3.6279 3.62791 10.7341 3.62791 19.5C3.62791 28.2659 10.7341 35.3721 19.5 35.3721C28.2659 35.3721 35.3721 28.2659 35.3721 19.5C35.3721 10.7341 28.2659 3.6279 19.5 3.6279Z" fill="#314CFF"/>
<path d="M27.2093 10.8837C27.2093 12.3865 25.9911 13.6046 24.4884 13.6046C22.9856 13.6046 21.7674 12.3865 21.7674 10.8837C21.7674 9.38099 22.9856 8.16279 24.4884 8.16279C25.9911 8.16279 27.2093 9.38099 27.2093 10.8837Z" fill="#314CFF"/>
<path d="M22.3981 14.1281L22.4353 14.1494L22.4707 14.1733L26.3059 16.6843L31.1694 15.059L32.319 18.4991L25.7904 20.6824L21.9419 18.1635L20.298 20.4699L25.8205 25.894L20.9827 33.6139L17.9084 31.6884L21.197 26.4387L17.6701 22.9747L12.2876 26.3395L6.22838 22.174L8.28325 19.1847L12.3815 22.0022L16.6542 19.3317L18.8517 16.2485L16.284 14.7357L12.0786 16.6205L10.5959 13.3097L16.5116 10.6588L22.3981 14.1281Z" fill="#314CFF"/>
</g>
<defs>
<clipPath id="clip0_378_258">
<rect width="39" height="39" rx="19.5" fill="white"/>
</clipPath>
</defs>
</svg>
